<svg width="282" height="52" viewBox="0 0 282 52" fill="none" xmlns="http://www.w3.org/2000/svg">
<g filter="url(#filter0_d)">
<rect x="1" y="1" width="276" height="46" rx="3" fill="#4285F4"/>
</g>
<path d="M67.12 29.144C66.2987 29.144 65.52 29.0373 64.784 28.824C64.0587 28.6 63.4667 28.3013 63.008 27.928C62.7627 27.7467 62.64 27.4907 62.64 27.16C62.64 26.936 62.704 26.744 62.832 26.584C62.9707 26.4133 63.1307 26.328 63.312 26.328C63.504 26.328 63.7227 26.4027 63.968 26.552C64.4267 26.8827 64.9067 27.1227 65.408 27.272C65.9093 27.4213 66.464 27.496 67.072 27.496C67.8507 27.496 68.448 27.3627 68.864 27.096C69.28 26.8187 69.488 26.4187 69.488 25.896C69.488 25.4907 69.2907 25.1813 68.896 24.968C68.512 24.744 67.8667 24.5307 66.96 24.328C66.0213 24.1253 65.2587 23.8907 64.672 23.624C64.0853 23.3573 63.6427 23.016 63.344 22.6C63.0453 22.184 62.896 21.656 62.896 21.016C62.896 20.3547 63.0827 19.7627 63.456 19.24C63.8293 18.7173 64.3467 18.312 65.008 18.024C65.68 17.7253 66.432 17.576 67.264 17.576C68.7893 17.576 70.032 17.9813 70.992 18.792C71.1307 18.9093 71.2267 19.0267 71.28 19.144C71.344 19.2507 71.376 19.3893 71.376 19.56C71.376 19.784 71.3067 19.9813 71.168 20.152C71.04 20.312 70.8853 20.392 70.704 20.392C70.5973 20.392 70.496 20.376 70.4 20.344C70.3147 20.312 70.1973 20.2533 70.048 20.168C69.6107 19.848 69.184 19.6133 68.768 19.464C68.3627 19.304 67.8613 19.224 67.264 19.224C66.5387 19.224 65.9627 19.3733 65.536 19.672C65.12 19.96 64.912 20.3653 64.912 20.888C64.912 21.3253 65.0987 21.6613 65.472 21.896C65.8453 22.1307 66.48 22.3493 67.376 22.552C68.3253 22.7653 69.0933 23.0053 69.68 23.272C70.2773 23.528 70.7307 23.8587 71.04 24.264C71.36 24.6693 71.52 25.176 71.52 25.784C71.52 26.4453 71.3333 27.032 70.96 27.544C70.5973 28.0453 70.08 28.44 69.408 28.728C68.7467 29.0053 67.984 29.144 67.12 29.144ZM74.7351 29.096C74.4471 29.096 74.2071 29.016 74.0151 28.856C73.8338 28.6853 73.7431 28.4453 73.7431 28.136V21.96C73.7431 21.6507 73.8338 21.416 74.0151 21.256C74.2071 21.096 74.4471 21.016 74.7351 21.016C75.0231 21.016 75.2631 21.096 75.4551 21.256C75.6471 21.416 75.7431 21.6507 75.7431 21.96V28.136C75.7431 28.4453 75.6471 28.6853 75.4551 28.856C75.2631 29.016 75.0231 29.096 74.7351 29.096ZM74.7351 19.592C74.3725 19.592 74.0845 19.496 73.8711 19.304C73.6578 19.1013 73.5511 18.84 73.5511 18.52C73.5511 18.2 73.6578 17.944 73.8711 17.752C74.0845 17.56 74.3725 17.464 74.7351 17.464C75.0871 17.464 75.3698 17.56 75.5831 17.752C75.8071 17.944 75.9191 18.2 75.9191 18.52C75.9191 18.84 75.8125 19.1013 75.5991 19.304C75.3858 19.496 75.0978 19.592 74.7351 19.592ZM84.9296 21.016C85.2283 21.016 85.4683 21.1013 85.6496 21.272C85.831 21.4427 85.9216 21.672 85.9216 21.96V28.28C85.9216 29.5067 85.5803 30.4347 84.8976 31.064C84.215 31.6933 83.207 32.008 81.8736 32.008C80.711 32.008 79.7403 31.7893 78.9616 31.352C78.567 31.1173 78.3696 30.8347 78.3696 30.504C78.3696 30.2693 78.423 30.0827 78.5296 29.944C78.647 29.8053 78.7963 29.736 78.9776 29.736C79.0736 29.736 79.191 29.7573 79.3296 29.8C79.4683 29.8533 79.6123 29.912 79.7616 29.976C80.1456 30.136 80.487 30.2587 80.7856 30.344C81.095 30.4293 81.447 30.472 81.8416 30.472C83.239 30.472 83.9376 29.7893 83.9376 28.424V27.4C83.703 27.8373 83.3616 28.1787 82.9136 28.424C82.4656 28.6587 81.9536 28.776 81.3776 28.776C80.695 28.776 80.087 28.616 79.5536 28.296C79.031 27.9653 78.6203 27.5067 78.3216 26.92C78.023 26.3333 77.8736 25.656 77.8736 24.888C77.8736 24.12 78.0176 23.4427 78.3056 22.856C78.6043 22.2587 79.0203 21.8 79.5536 21.48C80.087 21.1493 80.695 20.984 81.3776 20.984C81.9536 20.984 82.4656 21.1067 82.9136 21.352C83.3616 21.5867 83.703 21.9227 83.9376 22.36V21.944C83.9376 21.6667 84.0283 21.4427 84.2096 21.272C84.391 21.1013 84.631 21.016 84.9296 21.016ZM81.9056 27.224C82.5456 27.224 83.0416 27.016 83.3936 26.6C83.7563 26.184 83.9376 25.6133 83.9376 24.888C83.9376 24.152 83.7563 23.576 83.3936 23.16C83.0416 22.744 82.5456 22.536 81.9056 22.536C81.2763 22.536 80.7803 22.744 80.4176 23.16C80.055 23.576 79.8736 24.152 79.8736 24.888C79.8736 25.6133 80.055 26.184 80.4176 26.6C80.7803 27.016 81.2763 27.224 81.9056 27.224ZM93.0371 20.984C93.9758 20.984 94.6745 21.2507 95.1331 21.784C95.5918 22.3173 95.8211 23.1227 95.8211 24.2V28.136C95.8211 28.4347 95.7305 28.6693 95.5491 28.84C95.3785 29.0107 95.1385 29.096 94.8291 29.096C94.5198 29.096 94.2745 29.0107 94.0931 28.84C93.9118 28.6693 93.8211 28.4347 93.8211 28.136V24.312C93.8211 23.704 93.7038 23.2613 93.4691 22.984C93.2451 22.7067 92.8878 22.568 92.3971 22.568C91.8211 22.568 91.3571 22.7493 91.0051 23.112C90.6638 23.4747 90.4931 23.96 90.4931 24.568V28.136C90.4931 28.4347 90.4025 28.6693 90.2211 28.84C90.0398 29.0107 89.7945 29.096 89.4851 29.096C89.1758 29.096 88.9305 29.0107 88.7491 28.84C88.5785 28.6693 88.4931 28.4347 88.4931 28.136V21.944C88.4931 21.6667 88.5838 21.4427 88.7651 21.272C88.9465 21.1013 89.1918 21.016 89.5011 21.016C89.7785 21.016 90.0025 21.1013 90.1731 21.272C90.3545 21.432 90.4451 21.6453 90.4451 21.912V22.344C90.7118 21.9067 91.0691 21.5707 91.5171 21.336C91.9651 21.1013 92.4718 20.984 93.0371 20.984ZM109.372 21.016C109.682 21.016 109.927 21.1013 110.108 21.272C110.29 21.4427 110.38 21.672 110.38 21.96V28.168C110.38 28.4453 110.284 28.6693 110.092 28.84C109.911 29.0107 109.671 29.096 109.372 29.096C109.084 29.096 108.855 29.016 108.684 28.856C108.514 28.696 108.428 28.4773 108.428 28.2V27.8C108.183 28.2267 107.852 28.5573 107.436 28.792C107.02 29.016 106.551 29.128 106.028 29.128C104.108 29.128 103.148 28.0507 103.148 25.896V21.96C103.148 21.672 103.239 21.4427 103.42 21.272C103.602 21.1013 103.842 21.016 104.14 21.016C104.45 21.016 104.695 21.1013 104.876 21.272C105.058 21.4427 105.148 21.672 105.148 21.96V25.912C105.148 26.4667 105.26 26.8773 105.484 27.144C105.708 27.4107 106.06 27.544 106.54 27.544C107.095 27.544 107.538 27.3627 107.868 27C108.21 26.6267 108.38 26.136 108.38 25.528V21.96C108.38 21.672 108.471 21.4427 108.652 21.272C108.834 21.1013 109.074 21.016 109.372 21.016ZM117.458 20.984C118.13 20.984 118.727 21.1547 119.25 21.496C119.783 21.8373 120.194 22.3227 120.482 22.952C120.781 23.5707 120.93 24.2853 120.93 25.096C120.93 25.9067 120.781 26.616 120.482 27.224C120.194 27.832 119.789 28.3013 119.266 28.632C118.743 28.9627 118.141 29.128 117.458 29.128C116.903 29.128 116.407 29.0107 115.97 28.776C115.533 28.5413 115.197 28.216 114.962 27.8V31.064C114.962 31.3413 114.871 31.56 114.69 31.72C114.509 31.88 114.269 31.96 113.97 31.96C113.671 31.96 113.426 31.8747 113.234 31.704C113.053 31.5333 112.962 31.3093 112.962 31.032V21.96C112.962 21.672 113.047 21.4427 113.218 21.272C113.399 21.1013 113.639 21.016 113.938 21.016C114.237 21.016 114.477 21.1013 114.658 21.272C114.839 21.4427 114.93 21.672 114.93 21.96V22.36C115.165 21.9227 115.501 21.5867 115.938 21.352C116.386 21.1067 116.893 20.984 117.458 20.984ZM116.93 27.576C117.559 27.576 118.05 27.3627 118.402 26.936C118.754 26.4987 118.93 25.8853 118.93 25.096C118.93 24.2853 118.754 23.656 118.402 23.208C118.05 22.76 117.559 22.536 116.93 22.536C116.29 22.536 115.794 22.7547 115.442 23.192C115.101 23.6293 114.93 24.2533 114.93 25.064C114.93 25.864 115.101 26.4827 115.442 26.92C115.794 27.3573 116.29 27.576 116.93 27.576ZM138.491 21.608C138.566 21.416 138.672 21.272 138.811 21.176C138.96 21.08 139.12 21.032 139.291 21.032C139.536 21.032 139.755 21.1173 139.947 21.288C140.15 21.448 140.251 21.6507 140.251 21.896C140.251 22.0347 140.224 22.1573 140.171 22.264L137.531 28.456C137.446 28.6587 137.312 28.8133 137.131 28.92C136.96 29.0267 136.768 29.08 136.555 29.08C136.352 29.08 136.16 29.0267 135.979 28.92C135.808 28.8133 135.68 28.6587 135.595 28.456L133.691 23.88L131.851 28.456C131.766 28.6587 131.632 28.8133 131.451 28.92C131.28 29.0267 131.088 29.08 130.875 29.08C130.672 29.08 130.48 29.0267 130.299 28.92C130.118 28.8133 129.984 28.6587 129.899 28.456L127.275 22.264C127.222 22.1253 127.195 22.008 127.195 21.912C127.195 21.6667 127.302 21.4587 127.515 21.288C127.728 21.1067 127.963 21.016 128.219 21.016C128.4 21.016 128.566 21.064 128.715 21.16C128.864 21.256 128.976 21.4 129.051 21.592L130.939 26.472L132.875 21.64C132.96 21.4373 133.083 21.288 133.243 21.192C133.403 21.0853 133.579 21.032 133.771 21.032C133.963 21.032 134.139 21.0853 134.299 21.192C134.459 21.288 134.582 21.4373 134.667 21.64L136.619 26.488L138.491 21.608ZM143.11 29.096C142.822 29.096 142.582 29.016 142.39 28.856C142.209 28.6853 142.118 28.4453 142.118 28.136V21.96C142.118 21.6507 142.209 21.416 142.39 21.256C142.582 21.096 142.822 21.016 143.11 21.016C143.398 21.016 143.638 21.096 143.83 21.256C144.022 21.416 144.118 21.6507 144.118 21.96V28.136C144.118 28.4453 144.022 28.6853 143.83 28.856C143.638 29.016 143.398 29.096 143.11 29.096ZM143.11 19.592C142.747 19.592 142.459 19.496 142.246 19.304C142.033 19.1013 141.926 18.84 141.926 18.52C141.926 18.2 142.033 17.944 142.246 17.752C142.459 17.56 142.747 17.464 143.11 17.464C143.462 17.464 143.745 17.56 143.958 17.752C144.182 17.944 144.294 18.2 144.294 18.52C144.294 18.84 144.187 19.1013 143.974 19.304C143.761 19.496 143.473 19.592 143.11 19.592ZM150.745 27.608C151.278 27.64 151.545 27.88 151.545 28.328C151.545 28.584 151.438 28.7813 151.225 28.92C151.022 29.048 150.729 29.1013 150.345 29.08L149.913 29.048C148.121 28.92 147.225 27.96 147.225 26.168V22.68H146.425C146.137 22.68 145.913 22.616 145.753 22.488C145.603 22.36 145.529 22.1733 145.529 21.928C145.529 21.6827 145.603 21.496 145.753 21.368C145.913 21.24 146.137 21.176 146.425 21.176H147.225V19.704C147.225 19.416 147.315 19.1867 147.497 19.016C147.678 18.8453 147.923 18.76 148.233 18.76C148.531 18.76 148.771 18.8453 148.953 19.016C149.134 19.1867 149.225 19.416 149.225 19.704V21.176H150.585C150.873 21.176 151.091 21.24 151.241 21.368C151.401 21.496 151.481 21.6827 151.481 21.928C151.481 22.1733 151.401 22.36 151.241 22.488C151.091 22.616 150.873 22.68 150.585 22.68H149.225V26.312C149.225 27.1013 149.587 27.5227 150.313 27.576L150.745 27.608ZM157.663 20.984C159.498 20.984 160.415 22.056 160.415 24.2V28.136C160.415 28.4347 160.324 28.6693 160.143 28.84C159.972 29.0107 159.732 29.096 159.423 29.096C159.114 29.096 158.868 29.0107 158.687 28.84C158.506 28.6693 158.415 28.4347 158.415 28.136V24.2C158.415 23.6347 158.298 23.224 158.063 22.968C157.839 22.7013 157.482 22.568 156.991 22.568C156.415 22.568 155.951 22.7493 155.599 23.112C155.258 23.4747 155.087 23.96 155.087 24.568V28.136C155.087 28.4347 154.996 28.6693 154.815 28.84C154.634 29.0107 154.388 29.096 154.079 29.096C153.77 29.096 153.524 29.0107 153.343 28.84C153.172 28.6693 153.087 28.4347 153.087 28.136V18.568C153.087 18.2907 153.178 18.0667 153.359 17.896C153.551 17.7253 153.796 17.64 154.095 17.64C154.394 17.64 154.634 17.72 154.815 17.88C154.996 18.04 155.087 18.2587 155.087 18.536V22.264C155.354 21.848 155.706 21.5333 156.143 21.32C156.591 21.096 157.098 20.984 157.663 20.984ZM176.558 22.904C176.803 22.904 177.001 22.9787 177.15 23.128C177.299 23.2667 177.374 23.4533 177.374 23.688V27.128C177.374 27.6187 177.31 27.9653 177.182 28.168C177.054 28.3707 176.793 28.536 176.398 28.664C175.971 28.8133 175.475 28.9307 174.91 29.016C174.345 29.1013 173.801 29.144 173.278 29.144C172.115 29.144 171.107 28.9147 170.254 28.456C169.401 27.9973 168.745 27.336 168.286 26.472C167.838 25.5973 167.614 24.5573 167.614 23.352C167.614 22.168 167.838 21.144 168.286 20.28C168.745 19.4053 169.39 18.7387 170.222 18.28C171.054 17.8107 172.035 17.576 173.166 17.576C174.67 17.576 175.902 17.9813 176.862 18.792C176.99 18.9093 177.081 19.0267 177.134 19.144C177.198 19.2613 177.23 19.4 177.23 19.56C177.23 19.7947 177.166 19.992 177.038 20.152C176.91 20.312 176.755 20.392 176.574 20.392C176.457 20.392 176.35 20.376 176.254 20.344C176.158 20.3013 176.046 20.2373 175.918 20.152C175.449 19.8213 175.011 19.592 174.606 19.464C174.201 19.3253 173.742 19.256 173.23 19.256C172.067 19.256 171.187 19.6027 170.59 20.296C170.003 20.9787 169.71 21.9973 169.71 23.352C169.71 26.1253 170.926 27.512 173.358 27.512C174.083 27.512 174.809 27.4107 175.534 27.208V24.376H173.726C173.47 24.376 173.267 24.312 173.118 24.184C172.979 24.056 172.91 23.8747 172.91 23.64C172.91 23.4053 172.979 23.224 173.118 23.096C173.267 22.968 173.47 22.904 173.726 22.904H176.558ZM183.592 29.128C182.792 29.128 182.088 28.9627 181.48 28.632C180.883 28.3013 180.419 27.8267 180.088 27.208C179.758 26.5893 179.592 25.8693 179.592 25.048C179.592 24.2267 179.758 23.512 180.088 22.904C180.419 22.2853 180.883 21.8107 181.48 21.48C182.088 21.1493 182.792 20.984 183.592 20.984C184.392 20.984 185.091 21.1493 185.688 21.48C186.296 21.8107 186.76 22.2853 187.08 22.904C187.411 23.512 187.576 24.2267 187.576 25.048C187.576 25.8693 187.411 26.5893 187.08 27.208C186.76 27.8267 186.296 28.3013 185.688 28.632C185.091 28.9627 184.392 29.128 183.592 29.128ZM183.576 27.576C184.227 27.576 184.723 27.3627 185.064 26.936C185.406 26.5093 185.576 25.88 185.576 25.048C185.576 24.2267 185.406 23.6027 185.064 23.176C184.723 22.7387 184.232 22.52 183.592 22.52C182.952 22.52 182.456 22.7387 182.104 23.176C181.763 23.6027 181.592 24.2267 181.592 25.048C181.592 25.88 181.763 26.5093 182.104 26.936C182.446 27.3627 182.936 27.576 183.576 27.576ZM193.296 29.128C192.496 29.128 191.792 28.9627 191.184 28.632C190.586 28.3013 190.122 27.8267 189.792 27.208C189.461 26.5893 189.296 25.8693 189.296 25.048C189.296 24.2267 189.461 23.512 189.792 22.904C190.122 22.2853 190.586 21.8107 191.184 21.48C191.792 21.1493 192.496 20.984 193.296 20.984C194.096 20.984 194.794 21.1493 195.392 21.48C196 21.8107 196.464 22.2853 196.784 22.904C197.114 23.512 197.28 24.2267 197.28 25.048C197.28 25.8693 197.114 26.5893 196.784 27.208C196.464 27.8267 196 28.3013 195.392 28.632C194.794 28.9627 194.096 29.128 193.296 29.128ZM193.28 27.576C193.93 27.576 194.426 27.3627 194.768 26.936C195.109 26.5093 195.28 25.88 195.28 25.048C195.28 24.2267 195.109 23.6027 194.768 23.176C194.426 22.7387 193.936 22.52 193.296 22.52C192.656 22.52 192.16 22.7387 191.808 23.176C191.466 23.6027 191.296 24.2267 191.296 25.048C191.296 25.88 191.466 26.5093 191.808 26.936C192.149 27.3627 192.64 27.576 193.28 27.576ZM206.055 21.016C206.353 21.016 206.593 21.1013 206.775 21.272C206.956 21.4427 207.047 21.672 207.047 21.96V28.28C207.047 29.5067 206.705 30.4347 206.023 31.064C205.34 31.6933 204.332 32.008 202.999 32.008C201.836 32.008 200.865 31.7893 200.087 31.352C199.692 31.1173 199.495 30.8347 199.495 30.504C199.495 30.2693 199.548 30.0827 199.655 29.944C199.772 29.8053 199.921 29.736 200.103 29.736C200.199 29.736 200.316 29.7573 200.455 29.8C200.593 29.8533 200.737 29.912 200.887 29.976C201.271 30.136 201.612 30.2587 201.911 30.344C202.22 30.4293 202.572 30.472 202.967 30.472C204.364 30.472 205.063 29.7893 205.063 28.424V27.4C204.828 27.8373 204.487 28.1787 204.039 28.424C203.591 28.6587 203.079 28.776 202.503 28.776C201.82 28.776 201.212 28.616 200.679 28.296C200.156 27.9653 199.745 27.5067 199.447 26.92C199.148 26.3333 198.999 25.656 198.999 24.888C198.999 24.12 199.143 23.4427 199.431 22.856C199.729 22.2587 200.145 21.8 200.679 21.48C201.212 21.1493 201.82 20.984 202.503 20.984C203.079 20.984 203.591 21.1067 204.039 21.352C204.487 21.5867 204.828 21.9227 205.063 22.36V21.944C205.063 21.6667 205.153 21.4427 205.335 21.272C205.516 21.1013 205.756 21.016 206.055 21.016ZM203.031 27.224C203.671 27.224 204.167 27.016 204.519 26.6C204.881 26.184 205.063 25.6133 205.063 24.888C205.063 24.152 204.881 23.576 204.519 23.16C204.167 22.744 203.671 22.536 203.031 22.536C202.401 22.536 201.905 22.744 201.543 23.16C201.18 23.576 200.999 24.152 200.999 24.888C200.999 25.6133 201.18 26.184 201.543 26.6C201.905 27.016 202.401 27.224 203.031 27.224ZM210.61 29.096C210.322 29.096 210.082 29.016 209.89 28.856C209.709 28.6853 209.618 28.4453 209.618 28.136V18.584C209.618 18.2747 209.709 18.04 209.89 17.88C210.082 17.72 210.322 17.64 210.61 17.64C210.898 17.64 211.138 17.72 211.33 17.88C211.522 18.04 211.618 18.2747 211.618 18.584V28.136C211.618 28.4453 211.522 28.6853 211.33 28.856C211.138 29.016 210.898 29.096 210.61 29.096ZM220.373 26.856C220.554 26.856 220.698 26.9253 220.805 27.064C220.922 27.2027 220.981 27.3893 220.981 27.624C220.981 27.9547 220.783 28.232 220.389 28.456C220.026 28.6587 219.615 28.824 219.157 28.952C218.698 29.0693 218.261 29.128 217.845 29.128C216.586 29.128 215.589 28.7653 214.853 28.04C214.117 27.3147 213.749 26.3227 213.749 25.064C213.749 24.264 213.909 23.5547 214.229 22.936C214.549 22.3173 214.997 21.8373 215.573 21.496C216.159 21.1547 216.821 20.984 217.557 20.984C218.261 20.984 218.874 21.1387 219.397 21.448C219.919 21.7573 220.325 22.1947 220.613 22.76C220.901 23.3253 221.045 23.992 221.045 24.76C221.045 25.2187 220.842 25.448 220.437 25.448H215.717C215.781 26.184 215.989 26.728 216.341 27.08C216.693 27.4213 217.205 27.592 217.877 27.592C218.218 27.592 218.517 27.5493 218.773 27.464C219.039 27.3787 219.338 27.2613 219.669 27.112C219.989 26.9413 220.223 26.856 220.373 26.856ZM217.605 22.392C217.061 22.392 216.623 22.5627 216.293 22.904C215.973 23.2453 215.781 23.736 215.717 24.376H219.333C219.311 23.7253 219.151 23.2347 218.853 22.904C218.554 22.5627 218.138 22.392 217.605 22.392Z" fill="white"/>
<g filter="url(#filter1_dd)">
<path d="M43.8 2H4.2C2.98497 2 2 2.98497 2 4.2V43.8C2 45.015 2.98497 46 4.2 46H43.8C45.015 46 46 45.015 46 43.8V4.2C46 2.98497 45.015 2 43.8 2Z" fill="white"/>
</g>
<path fill-rule="evenodd" clip-rule="evenodd" d="M33.504 24.2252C33.504 23.5232 33.441 22.8482 33.324 22.2002H24V26.0297H29.328C29.0985 27.2672 28.401 28.3157 27.3525 29.0177V31.5017H30.552C32.424 29.7782 33.504 27.2402 33.504 24.2252Z" fill="#4285F4"/>
<path fill-rule="evenodd" clip-rule="evenodd" d="M24.0001 33.9001C26.6731 33.9001 28.9141 33.0136 30.5521 31.5016L27.3526 29.0176C26.4661 29.6116 25.3321 29.9626 24.0001 29.9626C21.4216 29.9626 19.2391 28.2211 18.4606 25.8811H15.1531V28.4461C16.7821 31.6816 20.1301 33.9001 24.0001 33.9001Z" fill="#34A853"/>
<path fill-rule="evenodd" clip-rule="evenodd" d="M18.4606 25.8812C18.2626 25.2872 18.1501 24.6527 18.1501 24.0002C18.1501 23.3477 18.2626 22.7132 18.4606 22.1192V19.5542H15.1531C14.4826 20.8907 14.1001 22.4027 14.1001 24.0002C14.1001 25.5977 14.4826 27.1097 15.1531 28.4462L18.4606 25.8812Z" fill="#FBBC05"/>
<path fill-rule="evenodd" clip-rule="evenodd" d="M24.0001 18.0376C25.4536 18.0376 26.7586 18.5371 27.7846 19.5181L30.6241 16.6786C28.9096 15.0811 26.6686 14.1001 24.0001 14.1001C20.1301 14.1001 16.7821 16.3186 15.1531 19.5541L18.4606 22.1191C19.2391 19.7791 21.4216 18.0376 24.0001 18.0376Z" fill="#EA4335"/>
<defs>
<filter id="filter0_d" x="0" y="0" width="282" height="52" filterUnits="userSpaceOnUse" color-interpolation-filters="sRGB">
<feFlood flood-opacity="0" result="BackgroundImageFix"/>
<feColorMatrix in="SourceAlpha" type="matrix" values="0 0 0 0 0 0 0 0 0 0 0 0 0 0 0 0 0 0 127 0"/>
<feOffset dx="2" dy="2"/>
<feGaussianBlur stdDeviation="1.5"/>
<feColorMatrix type="matrix" values="0 0 0 0 0 0 0 0 0 0 0 0 0 0 0 0 0 0 0.1 0"/>
<feBlend mode="normal" in2="BackgroundImageFix" result="effect1_dropShadow"/>
<feBlend mode="normal" in="SourceGraphic" in2="effect1_dropShadow" result="shape"/>
</filter>
<filter id="filter1_dd" x="1" y="1" width="46" height="47" filterUnits="userSpaceOnUse" color-interpolation-filters="sRGB">
<feFlood flood-opacity="0" result="BackgroundImageFix"/>
<feColorMatrix in="SourceAlpha" type="matrix" values="0 0 0 0 0 0 0 0 0 0 0 0 0 0 0 0 0 0 127 0"/>
<feOffset dy="1"/>
<feGaussianBlur stdDeviation="0.5"/>
<feColorMatrix type="matrix" values="0 0 0 0 0 0 0 0 0 0 0 0 0 0 0 0 0 0 0.168 0"/>
<feBlend mode="normal" in2="BackgroundImageFix" result="effect1_dropShadow"/>
<feColorMatrix in="SourceAlpha" type="matrix" values="0 0 0 0 0 0 0 0 0 0 0 0 0 0 0 0 0 0 127 0"/>
<feOffset/>
<feGaussianBlur stdDeviation="0.5"/>
<feColorMatrix type="matrix" values="0 0 0 0 0 0 0 0 0 0 0 0 0 0 0 0 0 0 0.084 0"/>
<feBlend mode="normal" in2="effect1_dropShadow" result="effect2_dropShadow"/>
<feBlend mode="normal" in="SourceGraphic" in2="effect2_dropShadow" result="shape"/>
</filter>
</defs>
</svg>
